<svg width="800" height="800" viewBox="0 0 800 800" fill="none" xmlns="http://www.w3.org/2000/svg">
<rect width="800" height="800" rx="100" fill="#1A1A1A"/>
<path fill-rule="evenodd" clip-rule="evenodd" d="M473.5 725C601.354 725 705 621.354 705 493.5C705 365.646 601.354 262 473.5 262C345.646 262 242 365.646 242 493.5C242 621.354 345.646 725 473.5 725ZM473 666C567.993 666 645 588.993 645 494C645 399.007 567.993 322 473 322C378.007 322 301 399.007 301 494C301 588.993 378.007 666 473 666Z" fill="#BCBCBC"/>
<rect x="441" y="36" width="64" height="255" fill="#BCBCBC"/>
<path fill-rule="evenodd" clip-rule="evenodd" d="M326.5 763C454.354 763 558 659.354 558 531.5C558 403.646 454.354 300 326.5 300C198.646 300 95 403.646 95 531.5C95 659.354 198.646 763 326.5 763ZM326 704C420.993 704 498 626.993 498 532C498 437.007 420.993 360 326 360C231.007 360 154 437.007 154 532C154 626.993 231.007 704 326 704Z" fill="white"/>
<rect x="294" y="74" width="64" height="255" fill="white"/>
</svg>
